<svg xmlns="http://www.w3.org/2000/svg" viewBox="0 0 2351.5 359" width="2351.5" height="359" data-orrery="1">
<title>Checkout service — Primary DB fails (2/4): Reads fail over to the replica</title>
<style>.group-box{fill:#e2e8f0;fill-opacity:.35;stroke:#cbd5e1;stroke-width:1.5}
.group-region .group-box{stroke-dasharray:8 6}
.group-zone .group-box{stroke-dasharray:3 5}
.group-cluster .group-box{stroke:#94a3b8}
.group-boundary .group-box{stroke:#dc2626;stroke-dasharray:6 6;fill:none}
.group-label{font:600 11px system-ui,-apple-system,"Segoe UI",Roboto,sans-serif;fill:#475569;letter-spacing:.06em;text-transform:uppercase}
.node-box{fill:#ffffff;stroke:#64748b;stroke-width:1.5}
.node-external .node-box{stroke-dasharray:5 4;fill:#f8fafc}
.node-state-failed .node-box{fill:#fef2f2;stroke:#dc2626;stroke-width:2;animation:orrery-pulse 1.2s linear infinite}
.node-state-failed .node-label{fill:#991b1b}
.node-state-degraded .node-box{fill:#fffbeb;stroke:#d97706;stroke-width:2}
.node-state-degraded .node-label{fill:#92400e}
.node-state-off{opacity:.45}
.node-state-off .node-box{stroke-dasharray:4 4}
.glyph{fill:none;stroke:#475569;stroke-width:1.5;stroke-linejoin:round;stroke-linecap:round}
.glyph-text{font:600 13px system-ui,-apple-system,"Segoe UI",Roboto,sans-serif;fill:#475569;text-anchor:middle;dominant-baseline:central}
.node-label{font:500 14px system-ui,-apple-system,"Segoe UI",Roboto,sans-serif;fill:#0f172a;text-anchor:middle;dominant-baseline:central}
.edge{fill:none;stroke:#94a3b8;stroke-width:1.5}
.edge-async{stroke-dasharray:6 5}
.edge-replication{stroke-dasharray:2 4}
.edge-dataflow{stroke-width:3}
.flow{fill:none;stroke:#2563eb;stroke-linecap:round;stroke-dasharray:6 10;animation:orrery-flow 1s linear infinite}
.edge-label{font:12px system-ui,-apple-system,"Segoe UI",Roboto,sans-serif;fill:#475569;text-anchor:middle;dominant-baseline:central;paint-order:stroke;stroke:#ffffff;stroke-width:5px;stroke-linejoin:round}
@keyframes orrery-flow{to{stroke-dashoffset:-16}}
@keyframes orrery-pulse{0%{stroke-opacity:1}50%{stroke-opacity:0.4}100%{stroke-opacity:1}}</style>
<defs><marker id="arrow" viewBox="0 0 12 12" refX="11" refY="6" markerWidth="12" markerHeight="12" markerUnits="userSpaceOnUse" orient="auto"><path d="M0 0L12 6L0 12z" fill="#94a3b8"/></marker></defs>
<g class="groups">
<g class="group group-tier" data-group="edge">
<rect class="group-box" x="258.5" y="156.4" width="104" height="96" rx="10"/>
<text class="group-label" x="270.5" y="172.4">Edge</text>
</g>
<g class="group group-region" data-group="region">
<rect class="group-box" x="417.5" y="20" width="1624.5" height="308" rx="10"/>
<text class="group-label" x="429.5" y="36">us-east-1</text>
</g>
<g class="group group-tier" data-group="app">
<rect class="group-box" x="437" y="78" width="328" height="196" rx="10"/>
<text class="group-label" x="449" y="94">Application</text>
</g>
<g class="group group-tier" data-group="data">
<rect class="group-box" x="1600" y="73" width="430" height="210" rx="10"/>
<text class="group-label" x="1612" y="89">Data</text>
</g>
<g class="group group-tier" data-group="async">
<rect class="group-box" x="994" y="82" width="541" height="122" rx="10"/>
<text class="group-label" x="1006" y="98">Async</text>
</g>
</g>
<g class="edges">
<path class="edge edge-sync" data-edge="browser->cdn" data-kind="sync" d="M130 216.4 L270.5 216.4" marker-end="url(#arrow)"/>
<path class="flow" data-flow="browser->cdn" data-load="0.9" d="M130 216.4 L258.5 216.4" style="stroke-width:4.2;animation-duration:0.8s"/>
<text class="edge-label" x="190.5" y="227.4">HTTPS</text>
<path class="edge edge-sync" data-edge="cdn->api" data-kind="sync" d="M350.5 216.4 L449 216.4" marker-end="url(#arrow)"/>
<path class="flow" data-flow="cdn->api" data-load="0.8" d="M350.5 216.4 L437 216.4" style="stroke-width:3.9;animation-duration:1s"/>
<path class="edge edge-sync" data-edge="api->pricing" data-kind="sync" d="M573 206.1 L608 206.1 L608 164 L643 164" marker-end="url(#arrow)"/>
<path class="flow" data-flow="api->pricing" data-load="0.6" d="M573 206.1 L608 206.1 L608 164 L631 164" style="stroke-width:3.3;animation-duration:1.5s"/>
<path class="edge edge-sync" data-edge="api->cache" data-kind="sync" d="M573 199.3 L598 199.3 L598 114 L797.5 114 L797.5 56 L1567.5 56 L1567.5 133 L1612 133" marker-end="url(#arrow)"/>
<path class="flow" data-flow="api->cache" data-load="0.6" d="M573 199.3 L598 199.3 L598 114 L797.5 114 L797.5 56 L1567.5 56 L1567.5 133 L1600 133" style="stroke-width:3.3;animation-duration:1.5s"/>
<path class="edge edge-sync" data-edge="api->db" data-kind="sync" d="M573 219.9 L618 219.9 L618 229 L1622 229" marker-end="url(#arrow)"/>
<path class="flow" data-flow="api->db" data-load="0" d="M573 219.9 L618 219.9 L618 229 L1610 229" style="stroke-width:1.5;animation:none;opacity:0"/>
<text class="edge-label" x="889.5" y="218">writes</text>
<path class="edge edge-sync" data-edge="api-reads" data-kind="sync" d="M573 226.7 L608 226.7 L608 245 L807.5 245 L807.5 270 L1792 270 L1792 237 L1817 237" marker-end="url(#arrow)"/>
<path class="flow" data-flow="api-reads" data-load="0.5" d="M573 226.7 L608 226.7 L608 245 L807.5 245 L807.5 270 L1792 270 L1792 237 L1805 237" style="stroke-width:3;animation-duration:1.8s"/>
<text class="edge-label" x="889.5" y="281">reads (failover)</text>
<path class="edge edge-replication" data-edge="db->replica" data-kind="replication" d="M1747 221 L1817 221" marker-end="url(#arrow)"/>
<path class="flow" data-flow="db->replica" data-load="0" d="M1747 221 L1805 221" style="stroke-width:1.5;animation:none;opacity:0"/>
<path class="edge edge-sync" data-edge="api->psp" data-kind="sync" d="M573 233.6 L598 233.6 L598 261 L797.5 261 L797.5 315 L2177.5 315" marker-end="url(#arrow)"/>
<path class="flow" data-flow="api->psp" data-load="0.3" d="M573 233.6 L598 233.6 L598 261 L797.5 261 L797.5 315 L2165.5 315" style="stroke-width:2.4;animation-duration:2.3s"/>
<text class="edge-label" x="2113.5" y="326">charge</text>
<path class="edge edge-async" data-edge="api->queue" data-kind="async" d="M573 213 L797.5 213 L797.5 150 L1006 150" marker-end="url(#arrow)"/>
<path class="flow" data-flow="api->queue" data-load="0.4" d="M573 213 L797.5 213 L797.5 150 L994 150" style="stroke-width:2.7;animation-duration:2s"/>
<text class="edge-label" x="889.5" y="161">order.placed</text>
<path class="edge edge-async" data-edge="queue->worker" data-kind="async" d="M1154 150 L1194 150" marker-end="url(#arrow)"/>
<path class="flow" data-flow="queue->worker" data-load="0" d="M1154 150 L1182 150" style="stroke-width:1.5;animation:none;opacity:0"/>
<path class="edge edge-dataflow" data-edge="worker->s3" data-kind="dataflow" d="M1356 142 L1406 142" marker-end="url(#arrow)"/>
<path class="flow" data-flow="worker->s3" data-load="0" d="M1356 142 L1394 142" style="stroke-width:1.5;animation:none;opacity:0"/>
<path class="edge edge-sync" data-edge="worker->db" data-kind="sync" d="M1356 158 L1381 158 L1381 191 L1567.5 191 L1567.5 213 L1622 213" marker-end="url(#arrow)"/>
<path class="flow" data-flow="worker->db" data-load="0" d="M1356 158 L1381 158 L1381 191 L1567.5 191 L1567.5 213 L1610 213" style="stroke-width:1.5;animation:none;opacity:0"/>
</g>
<g class="nodes">
<g class="node node-client" data-node="browser" data-kind="client" data-state="on" transform="translate(20 192.4)">
<rect class="node-box" width="110" height="48" rx="8"/>
<g class="glyph" transform="translate(12 16)"><rect x="1.5" y="2.5" width="13" height="9" rx="1"/><path d="M5 14.5h6M8 11.5v3"/></g>
<text class="node-label" x="73" y="24">Browser</text>
</g>
<g class="node node-gateway node-state-degraded" data-node="cdn" data-kind="gateway" data-state="degraded" transform="translate(270.5 192.4)">
<title>Checkout API degraded</title>
<rect class="node-box" width="80" height="48" rx="8"/>
<g class="glyph" transform="translate(12 16)"><path d="M8 1.5l6.5 6.5L8 14.5 1.5 8z"/></g>
<text class="node-label" x="58" y="24">CDN</text>
</g>
<g class="node node-service node-state-degraded" data-node="api" data-kind="service" data-state="degraded" transform="translate(449 192.4)">
<title>Orders DB is down, using Orders DB (replica)</title>
<rect class="node-box" width="124" height="48" rx="8"/>
<text class="node-label" x="62" y="24">Checkout API</text>
</g>
<g class="node node-function" data-node="pricing" data-kind="function" data-state="on" transform="translate(643 140)">
<rect class="node-box" width="110" height="48" rx="8"/>
<g class="glyph" transform="translate(12 16)"><text class="glyph-text" x="8" y="8.5">λ</text></g>
<text class="node-label" x="73" y="24">Pricing</text>
</g>
<g class="node node-cache" data-node="cache" data-kind="cache" data-state="on" transform="translate(1612 109)">
<rect class="node-box" width="155" height="48" rx="8"/>
<g class="glyph" transform="translate(12 16)"><path d="M9 1.5L3 9h4.5l-1 5.5L13 7H8.5z"/></g>
<text class="node-label" x="95.5" y="24">Session cache</text>
</g>
<g class="node node-database node-state-failed" data-node="db" data-kind="database" data-state="failed" transform="translate(1622 197)">
<rect class="node-box" width="125" height="48" rx="8"/>
<g class="glyph" transform="translate(12 16)"><ellipse cx="8" cy="4" rx="6" ry="2.5"/><path d="M2 4v8c0 1.4 2.7 2.5 6 2.5s6-1.1 6-2.5V4"/></g>
<text class="node-label" x="80.5" y="24">Orders DB</text>
</g>
<g class="node node-database" data-node="replica" data-kind="database" data-state="on" transform="translate(1817 205)">
<rect class="node-box" width="201" height="48" rx="8"/>
<g class="glyph" transform="translate(12 16)"><ellipse cx="8" cy="4" rx="6" ry="2.5"/><path d="M2 4v8c0 1.4 2.7 2.5 6 2.5s6-1.1 6-2.5V4"/></g>
<text class="node-label" x="118.5" y="24">Orders DB (replica)</text>
</g>
<g class="node node-queue" data-node="queue" data-kind="queue" data-state="on" transform="translate(1006 126)">
<rect class="node-box" width="148" height="48" rx="8"/>
<g class="glyph" transform="translate(12 16)"><rect x="1.5" y="5" width="3.5" height="6" rx=".5"/><rect x="6.25" y="5" width="3.5" height="6" rx=".5"/><rect x="11" y="5" width="3.5" height="6" rx=".5"/></g>
<text class="node-label" x="92" y="24">Order events</text>
</g>
<g class="node node-service node-state-failed" data-node="worker" data-kind="service" data-state="failed" transform="translate(1194 126)">
<title>depends on Orders DB</title>
<rect class="node-box" width="162" height="48" rx="8"/>
<text class="node-label" x="81" y="24">Fulfilment worker</text>
</g>
<g class="node node-storage" data-node="s3" data-kind="storage" data-state="on" transform="translate(1406 118)">
<rect class="node-box" width="117" height="48" rx="8"/>
<g class="glyph" transform="translate(12 16)"><path d="M2 3.5h12l-1.5 10.5h-9z"/><path d="M2 3.5c0 1.2 2.7 2 6 2s6-.8 6-2"/></g>
<text class="node-label" x="76.5" y="24">Receipts</text>
</g>
<g class="node node-external" data-node="psp" data-kind="external" data-state="on" transform="translate(2177.5 291)">
<rect class="node-box" width="154" height="48" rx="8"/>
<text class="node-label" x="77" y="24">Payment provider</text>
</g>
</g>
</svg>
