<svg xmlns="http://www.w3.org/2000/svg" viewBox="0 0 355 377.5" width="355" height="377.5" data-orrery="1">
<title>Overview</title>
<style>.group-box{fill:#e2e8f0;fill-opacity:.35;stroke:#cbd5e1;stroke-width:1.5}
.group-region .group-box{stroke-dasharray:8 6}
.group-zone .group-box{stroke-dasharray:3 5}
.group-cluster .group-box{stroke:#94a3b8}
.group-boundary .group-box{stroke:#dc2626;stroke-dasharray:6 6;fill:none}
.group-label{font:600 11px system-ui,-apple-system,"Segoe UI",Roboto,sans-serif;fill:#475569;letter-spacing:.06em;text-transform:uppercase}
.node-box{fill:#ffffff;stroke:#64748b;stroke-width:1.5}
.node-external .node-box{stroke-dasharray:5 4;fill:#f8fafc}
.node-state-failed .node-box{fill:#fef2f2;stroke:#dc2626;stroke-width:2;animation:orrery-pulse 1.2s linear infinite}
.node-state-failed .node-label{fill:#991b1b}
.node-state-degraded .node-box{fill:#fffbeb;stroke:#d97706;stroke-width:2}
.node-state-degraded .node-label{fill:#92400e}
.node-state-off{opacity:.45}
.node-state-off .node-box{stroke-dasharray:4 4}
.glyph{fill:none;stroke:#475569;stroke-width:1.5;stroke-linejoin:round;stroke-linecap:round}
.glyph-text{font:600 13px system-ui,-apple-system,"Segoe UI",Roboto,sans-serif;fill:#475569;text-anchor:middle;dominant-baseline:central}
.node-label{font:500 14px system-ui,-apple-system,"Segoe UI",Roboto,sans-serif;fill:#0f172a;text-anchor:middle;dominant-baseline:central}
.edge{fill:none;stroke:#94a3b8;stroke-width:1.5}
.edge-async{stroke-dasharray:6 5}
.edge-replication{stroke-dasharray:2 4}
.edge-dataflow{stroke-width:3}
.flow{fill:none;stroke:#2563eb;stroke-linecap:round;stroke-dasharray:6 10;animation:orrery-flow 1s linear infinite}
.edge-label{font:12px system-ui,-apple-system,"Segoe UI",Roboto,sans-serif;fill:#475569;text-anchor:middle;dominant-baseline:central;paint-order:stroke;stroke:#ffffff;stroke-width:5px;stroke-linejoin:round}
@keyframes orrery-flow{to{stroke-dashoffset:-16}}
@keyframes orrery-pulse{0%{stroke-opacity:1}50%{stroke-opacity:0.4}100%{stroke-opacity:1}}</style>
<defs><marker id="arrow" viewBox="0 0 12 12" refX="11" refY="6" markerWidth="12" markerHeight="12" markerUnits="userSpaceOnUse" orient="auto"><path d="M0 0L12 6L0 12z" fill="#94a3b8"/></marker></defs>
<g class="groups">
<g class="group group-tier" data-group="platform">
<rect class="group-box" x="20" y="20" width="315" height="337.5" rx="10"/>
<text class="group-label" x="32" y="36">Platform</text>
</g>
<g class="group group-tier" data-group="billing">
<rect class="group-box" x="32" y="151.5" width="291" height="194" rx="10"/>
<text class="group-label" x="44" y="167.5">Billing</text>
</g>
</g>
<g class="edges">
<path class="edge edge-sync" data-edge="login->invoices" data-kind="sync" d="M110.5 104 L110.5 187.5" marker-end="url(#arrow)"/>
<path class="flow" data-flow="login->invoices" data-load="0.5" d="M110.5 104 L110.5 175.5" style="stroke-width:3;animation-duration:1.8s"/>
<path class="edge edge-sync" data-edge="invoices->ledger" data-kind="sync" d="M95 235.5 L95 285.5" marker-end="url(#arrow)"/>
<path class="flow" data-flow="invoices->ledger" data-load="0.6" d="M95 235.5 L95 273.5" style="stroke-width:3.3;animation-duration:1.5s"/>
<path class="edge edge-dataflow" data-edge="invoices->pdf" data-kind="dataflow" d="M126 235.5 L126 260.5 L248.5 260.5 L248.5 285.5" marker-end="url(#arrow)"/>
<path class="flow" data-flow="invoices->pdf" data-load="0.3" d="M126 235.5 L126 260.5 L248.5 260.5 L248.5 273.5" style="stroke-width:2.4;animation-duration:2.3s"/>
</g>
<g class="nodes">
<g class="node node-service" data-node="login" data-kind="service" data-state="on" transform="translate(70.5 56)">
<rect class="node-box" width="80" height="48" rx="8"/>
<text class="node-label" x="40" y="24">Login</text>
</g>
<g class="node node-service" data-node="invoices" data-kind="service" data-state="on" transform="translate(64 187.5)">
<rect class="node-box" width="93" height="48" rx="8"/>
<text class="node-label" x="46.5" y="24">Invoices</text>
</g>
<g class="node node-database" data-node="ledger" data-kind="database" data-state="on" transform="translate(44 285.5)">
<rect class="node-box" width="102" height="48" rx="8"/>
<g class="glyph" transform="translate(12 16)"><ellipse cx="8" cy="4" rx="6" ry="2.5"/><path d="M2 4v8c0 1.4 2.7 2.5 6 2.5s6-1.1 6-2.5V4"/></g>
<text class="node-label" x="69" y="24">Ledger</text>
</g>
<g class="node node-storage" data-node="pdf" data-kind="storage" data-state="on" transform="translate(186 285.5)">
<rect class="node-box" width="125" height="48" rx="8"/>
<g class="glyph" transform="translate(12 16)"><path d="M2 3.5h12l-1.5 10.5h-9z"/><path d="M2 3.5c0 1.2 2.7 2 6 2s6-.8 6-2"/></g>
<text class="node-label" x="80.5" y="24">PDF store</text>
</g>
</g>
</svg>
